<svg id="Layer_1" data-name="Layer 1" xmlns="http://www.w3.org/2000/svg" viewBox="0 0 71.52 72.25"><defs><style>.cls-1{fill:#df9b24;}.cls-2{fill:#fff;}</style></defs><title>Redes-2G-3G-4G-5G</title><path class="cls-1" d="M68.36,0H10.48A3.14,3.14,0,0,0,7.35,2.81L0,68.75a3.15,3.15,0,0,0,3.13,3.5H61a3.15,3.15,0,0,0,3.14-2.8L71.5,3.5A3.16,3.16,0,0,0,68.36,0ZM59,20.46a7.56,7.56,0,1,1,7.55-7.55A7.55,7.55,0,0,1,59,20.46Z"/><path class="cls-2" d="M29.65,59.68h-19a11.43,11.43,0,0,1,1.67-6,15.39,15.39,0,0,1,4.46-4.5c.9-.66,1.84-1.3,2.82-1.93a23.44,23.44,0,0,0,2.71-2,11.28,11.28,0,0,0,2-2.33A5.57,5.57,0,0,0,25.16,40,8,8,0,0,0,25,38.38a4.48,4.48,0,0,0-.69-1.59,4.16,4.16,0,0,0-1.44-1.23,5,5,0,0,0-2.38-.5,4.31,4.31,0,0,0-2.25.54,4,4,0,0,0-1.43,1.47,7.57,7.57,0,0,0-.8,2.21A15.57,15.57,0,0,0,15.7,42H11.16a14.28,14.28,0,0,1,.62-4.28,9.33,9.33,0,0,1,1.85-3.4,8.72,8.72,0,0,1,3-2.25,9.8,9.8,0,0,1,4.12-.81,9.61,9.61,0,0,1,4.25.83,8.31,8.31,0,0,1,2.77,2.11A7.91,7.91,0,0,1,29.26,37a10.22,10.22,0,0,1,.43,2.85,8.5,8.5,0,0,1-.51,3,10.12,10.12,0,0,1-1.39,2.49,14.47,14.47,0,0,1-2,2.08,28,28,0,0,1-2.31,1.79c-.8.56-1.59,1.09-2.39,1.59s-1.53,1-2.2,1.51a12.55,12.55,0,0,0-1.77,1.58,4.43,4.43,0,0,0-1,1.73H29.65Z"/><path class="cls-2" d="M59,59.68H55.82l-.75-3.34a11.79,11.79,0,0,1-4,3.14,11.16,11.16,0,0,1-4.57.88,13.43,13.43,0,0,1-5.71-1.17A12.66,12.66,0,0,1,36.53,56a14.37,14.37,0,0,1-2.68-4.73,18.21,18.21,0,0,1,0-11.49A14.42,14.42,0,0,1,36.53,35a13,13,0,0,1,4.28-3.22,13.28,13.28,0,0,1,5.71-1.19,15.47,15.47,0,0,1,4.39.62,11.75,11.75,0,0,1,3.72,1.83,10,10,0,0,1,2.7,3,10.66,10.66,0,0,1,1.36,4.21H53.83A6.16,6.16,0,0,0,53,37.87a6.34,6.34,0,0,0-1.65-1.77A7.21,7.21,0,0,0,49.1,35a9.51,9.51,0,0,0-2.58-.35,8,8,0,0,0-3.92.91A7.73,7.73,0,0,0,39.91,38a11.44,11.44,0,0,0-1.53,3.48,16.37,16.37,0,0,0,0,8,11.44,11.44,0,0,0,1.53,3.48,7.73,7.73,0,0,0,2.69,2.45,8,8,0,0,0,3.92.91,9.14,9.14,0,0,0,3.38-.5,6.5,6.5,0,0,0,2.48-1.55,6.34,6.34,0,0,0,1.53-2.48,10.45,10.45,0,0,0,.56-3.26H46.91V44.73H59Z"/></svg>