<svg id="Layer_1" data-name="Layer 1" xmlns="http://www.w3.org/2000/svg" viewBox="0 0 71.52 72.25"><defs><style>.cls-1{fill:#599de0;}.cls-2{fill:#fff;}</style></defs><title>Redes-2G-3G-4G-5G</title><path class="cls-1" d="M68.36,0H10.48A3.14,3.14,0,0,0,7.35,2.81L0,68.75a3.15,3.15,0,0,0,3.13,3.5H61a3.15,3.15,0,0,0,3.14-2.8L71.5,3.5A3.16,3.16,0,0,0,68.36,0ZM59,20.46a7.56,7.56,0,1,1,7.55-7.55A7.55,7.55,0,0,1,59,20.46Z"/><path class="cls-2" d="M18.16,43.38a11.16,11.16,0,0,0,2.23-.16,6.26,6.26,0,0,0,2-.7,3.94,3.94,0,0,0,1.41-1.37A4,4,0,0,0,24.33,39a3.62,3.62,0,0,0-1.22-2.86A4.52,4.52,0,0,0,20,35.06a4.11,4.11,0,0,0-3.52,1.77,5.89,5.89,0,0,0-.85,1.83,6.69,6.69,0,0,0-.24,2.09H10.84A11.75,11.75,0,0,1,11.6,37a9.53,9.53,0,0,1,1.85-3,8.23,8.23,0,0,1,2.84-2,9.47,9.47,0,0,1,3.78-.71,11.22,11.22,0,0,1,3.2.47,9.48,9.48,0,0,1,2.83,1.4,6.81,6.81,0,0,1,2,2.32,6.68,6.68,0,0,1,.76,3.24,6.89,6.89,0,0,1-1,3.68,5.44,5.44,0,0,1-3,2.29v.08a5.77,5.77,0,0,1,3.72,2.37,8.51,8.51,0,0,1,.54,8.15A8.07,8.07,0,0,1,27,58a10,10,0,0,1-3.14,1.69,11.83,11.83,0,0,1-3.78.6,11.67,11.67,0,0,1-4.24-.7,8.13,8.13,0,0,1-3-2A8.42,8.42,0,0,1,11,54.51a12.43,12.43,0,0,1-.67-4h4.53a6.31,6.31,0,0,0,1.25,4.24,4.77,4.77,0,0,0,4,1.69,5.7,5.7,0,0,0,3.8-1.29,5.33,5.33,0,0,0,.89-6.27,4.12,4.12,0,0,0-1.67-1.45,6.78,6.78,0,0,0-2.32-.61,21.15,21.15,0,0,0-2.65-.08Z"/><path class="cls-2" d="M59,59.68H55.82l-.75-3.34a11.79,11.79,0,0,1-4,3.14,11.16,11.16,0,0,1-4.57.88,13.43,13.43,0,0,1-5.71-1.17A12.66,12.66,0,0,1,36.53,56a14.37,14.37,0,0,1-2.68-4.73,18.21,18.21,0,0,1,0-11.49A14.42,14.42,0,0,1,36.53,35a13,13,0,0,1,4.28-3.22,13.28,13.28,0,0,1,5.71-1.19,15.47,15.47,0,0,1,4.39.62,11.75,11.75,0,0,1,3.72,1.83,10,10,0,0,1,2.7,3,10.66,10.66,0,0,1,1.36,4.21H53.83A6.16,6.16,0,0,0,53,37.87a6.34,6.34,0,0,0-1.65-1.77A7.21,7.21,0,0,0,49.1,35a9.51,9.51,0,0,0-2.58-.35,8,8,0,0,0-3.92.91A7.61,7.61,0,0,0,39.92,38a11.21,11.21,0,0,0-1.54,3.48,16.37,16.37,0,0,0,0,8,11.21,11.21,0,0,0,1.54,3.48,7.61,7.61,0,0,0,2.68,2.45,8,8,0,0,0,3.92.91,9.14,9.14,0,0,0,3.38-.5,6.5,6.5,0,0,0,2.48-1.55,6.34,6.34,0,0,0,1.53-2.48,10.45,10.45,0,0,0,.56-3.26H46.91V44.73H59Z"/></svg>