<svg id="Layer_1" data-name="Layer 1" xmlns="http://www.w3.org/2000/svg" viewBox="0 0 71.52 72.25"><defs><style>.cls-1{fill:#a5c23c;}.cls-2{fill:#fff;}.cls-3{fill:#5bc500;stroke:#fff;stroke-miterlimit:10;}</style></defs><title>Redes-2G-3G-4G-5G</title><path class="cls-1" d="M68.36,0H10.48A3.14,3.14,0,0,0,7.35,2.81L0,68.75a3.15,3.15,0,0,0,3.13,3.5H61a3.15,3.15,0,0,0,3.14-2.8L71.5,3.5A3.16,3.16,0,0,0,68.36,0ZM59,20.46a7.56,7.56,0,1,1,7.55-7.55A7.55,7.55,0,0,1,59,20.46Z"/><path class="cls-2" d="M29.85,53.08H26.27v6.6H22v-6.6H10.05V48.59L22,31.84h4.29V49.5h3.58ZM13.55,49.5H22V37.25H21.9Z"/><path class="cls-2" d="M59,59.68H55.82l-.75-3.34a11.79,11.79,0,0,1-4,3.14,11.16,11.16,0,0,1-4.57.88,13.28,13.28,0,0,1-5.71-1.18A12.5,12.5,0,0,1,36.54,56a14.22,14.22,0,0,1-2.69-4.73,18.21,18.21,0,0,1,0-11.49A14.26,14.26,0,0,1,36.54,35a12.81,12.81,0,0,1,4.27-3.22,13.28,13.28,0,0,1,5.71-1.19,15.47,15.47,0,0,1,4.39.62,11.75,11.75,0,0,1,3.72,1.83,10.17,10.17,0,0,1,2.71,3,10.82,10.82,0,0,1,1.35,4.21H53.84a6.13,6.13,0,0,0-2.51-4.21A7.21,7.21,0,0,0,49.1,35a9.51,9.51,0,0,0-2.58-.35,8,8,0,0,0-3.92.91A7.61,7.61,0,0,0,39.92,38a11,11,0,0,0-1.53,3.48,16.05,16.05,0,0,0,0,8,11,11,0,0,0,1.53,3.48,7.61,7.61,0,0,0,2.68,2.45,8,8,0,0,0,3.92.91,9.14,9.14,0,0,0,3.38-.5,6.5,6.5,0,0,0,2.48-1.55,6.34,6.34,0,0,0,1.53-2.48,10.45,10.45,0,0,0,.56-3.26H46.92V44.73H59Z"/><circle class="cls-3" cx="58.98" cy="12.91" r="7.56"/><path class="cls-2" d="M63.35,10.39l-6.5,6.5-3-3,.77-.76,2.2,2.21,5.74-5.74Z"/></svg>