<svg id="Layer_1" data-name="Layer 1" xmlns="http://www.w3.org/2000/svg" viewBox="0 0 71.52 72.25"><defs><style>.cls-1{fill:#c41d50;}.cls-2{fill:#fff;}</style></defs><title>Redes-2G-3G-4G-5G</title><path class="cls-1" d="M68.36,0H10.48A3.14,3.14,0,0,0,7.35,2.81L0,68.75a3.15,3.15,0,0,0,3.13,3.5H61a3.15,3.15,0,0,0,3.14-2.8L71.5,3.5A3.16,3.16,0,0,0,68.36,0ZM59,20.46a7.56,7.56,0,1,1,7.55-7.55A7.55,7.55,0,0,1,59,20.46Z"/><path class="cls-2" d="M14,31.84h14.4V35.9h-11L15.93,43l.08.08a5.83,5.83,0,0,1,2.33-1.57,7.77,7.77,0,0,1,2.8-.54,9.25,9.25,0,0,1,3.7.7,7.57,7.57,0,0,1,2.75,2,8.54,8.54,0,0,1,1.69,3,11.62,11.62,0,0,1,.57,3.7,12.1,12.1,0,0,1-.53,3.44,9.53,9.53,0,0,1-1.71,3.22,9.16,9.16,0,0,1-3,2.38,9.42,9.42,0,0,1-4.37.94,12.56,12.56,0,0,1-3.76-.54,8.86,8.86,0,0,1-3-1.61,7.85,7.85,0,0,1-2.09-2.64,9.1,9.1,0,0,1-.86-3.68H15a5.06,5.06,0,0,0,1.55,3.48,5.14,5.14,0,0,0,3.58,1.21A5.52,5.52,0,0,0,22.57,56a4.18,4.18,0,0,0,1.62-1.31,5.18,5.18,0,0,0,.87-2,10.59,10.59,0,0,0,.26-2.38A7.67,7.67,0,0,0,25,48.13a5.5,5.5,0,0,0-.95-1.85A4.68,4.68,0,0,0,22.4,45,5.51,5.51,0,0,0,20,44.53a6.73,6.73,0,0,0-2.69.54,3.34,3.34,0,0,0-1.81,2H11Z"/><path class="cls-2" d="M59,59.68H55.82l-.75-3.34a11.88,11.88,0,0,1-4,3.14,11.16,11.16,0,0,1-4.57.88,13.4,13.4,0,0,1-5.71-1.17A12.57,12.57,0,0,1,36.53,56a14.37,14.37,0,0,1-2.68-4.73,18,18,0,0,1,0-11.49A14.42,14.42,0,0,1,36.53,35a12.85,12.85,0,0,1,4.28-3.22,13.25,13.25,0,0,1,5.71-1.19,15.47,15.47,0,0,1,4.39.62,11.75,11.75,0,0,1,3.72,1.83,10,10,0,0,1,2.7,3,10.66,10.66,0,0,1,1.36,4.21H53.83A6.16,6.16,0,0,0,53,37.87a6.34,6.34,0,0,0-1.65-1.77A7.32,7.32,0,0,0,49.1,35a9.51,9.51,0,0,0-2.58-.35,7.94,7.94,0,0,0-3.92.91A7.73,7.73,0,0,0,39.91,38a11,11,0,0,0-1.53,3.48,16.37,16.37,0,0,0,0,8,11,11,0,0,0,1.53,3.48,7.73,7.73,0,0,0,2.69,2.45,7.94,7.94,0,0,0,3.92.91,9.14,9.14,0,0,0,3.38-.5,6.5,6.5,0,0,0,2.48-1.55,6.34,6.34,0,0,0,1.53-2.48,10.45,10.45,0,0,0,.56-3.26H46.91V44.73H59Z"/></svg>